<?xml version="1.0" encoding="utf-8"?>
<!-- Generator: Adobe Illustrator 25.2.3, SVG Export Plug-In . SVG Version: 6.00 Build 0)  -->
<svg version="1.1" id="Layer_1" xmlns="http://www.w3.org/2000/svg" xmlns:xlink="http://www.w3.org/1999/xlink" x="0px" y="0px"
	 viewBox="0 0 121 38" style="enable-background:new 0 0 121 38;" xml:space="preserve">
<style type="text/css">
	.st0{enable-background:new    ;}
	.st1{fill:#DCEAF4;}
	.st2{fill:none;stroke:#DCEAF4;stroke-linejoin:round;}
</style>
<g class="st0">
	<path class="st1" d="M57.7,12c1,0,1.7,0.2,2.2,0.6c0.5,0.4,0.9,1.1,1.2,2.1l2.3,8.7c0.1,0.1,0.2,0.1,0.3,0.1c0.1,0,0.2,0,0.2-0.1
		c0.1-0.1,0.1-0.1,0.1-0.2c0-0.1,0-0.3-0.1-0.4l-2.1-8.4c-0.1-0.3-0.2-0.5-0.3-0.8s-0.3-0.5-0.4-0.7c-0.1-0.2-0.2-0.3-0.2-0.3
		c0-0.1,0-0.1,0-0.2v-0.1c0-0.1,0.1-0.2,0.3-0.2h6.8c0.3,0,0.5,0.1,0.6,0.2c0.1,0.1,0.2,0.3,0.2,0.6c0,0.5-0.4,2-1.2,4.5
		s-1.8,5-2.8,7.5c-0.2,0.4-0.4,0.7-0.7,0.9C63.8,25.9,63.4,26,63,26h-3c-0.5,0-0.8-0.1-1.1-0.3c-0.3-0.2-0.5-0.5-0.7-0.9l-4.2-11.1
		c-0.1-0.2-0.2-0.4-0.3-0.6c-0.1-0.1-0.4-0.3-0.7-0.5c-0.1,0-0.1-0.1-0.1-0.2v-0.3c0-0.1,0.1-0.2,0.3-0.2H57.7z"/>
	<path class="st1" d="M76.3,25.3c0,0.3-0.1,0.5-0.2,0.6C76,25.9,75.9,26,75.6,26h-4.2c-0.3,0-0.4-0.1-0.5-0.2
		c-0.1-0.1-0.2-0.3-0.2-0.6V14.4c0-0.3,0-0.6-0.1-0.8c-0.1-0.2-0.2-0.3-0.3-0.4c-0.1-0.1-0.4-0.3-0.7-0.5c-0.1,0-0.1-0.1-0.1-0.2
		v-0.3c0-0.1,0.1-0.2,0.3-0.2h5.9c0.3,0,0.4,0.1,0.5,0.2c0.1,0.1,0.2,0.3,0.2,0.6V25.3z"/>
	<path class="st1" d="M85.8,12c1.6,0,2.9,0.3,3.7,0.8s1.2,1.3,1.2,2.3c0,0.5-0.1,1-0.3,1.4s-0.6,0.8-1,1c-0.4,0.3-1,0.5-1.6,0.6
		c1.2,0.1,2.1,0.5,2.7,1.1s0.9,1.4,0.9,2.4c0,1.3-0.5,2.4-1.6,3.1c-1,0.8-2.4,1.2-4.2,1.2h-6.4c-0.3,0-0.4-0.1-0.5-0.2
		c-0.1-0.1-0.2-0.3-0.2-0.6V14.4c0-0.3,0-0.6-0.1-0.8c-0.1-0.2-0.2-0.3-0.3-0.4c-0.1-0.1-0.4-0.3-0.7-0.5c-0.1,0-0.1-0.1-0.1-0.2
		v-0.3c0-0.1,0.1-0.2,0.3-0.2H85.8z M84.3,17.8h0.3c0.3,0,0.5-0.2,0.5-0.5v-3.7c0-0.2,0-0.3-0.1-0.4c-0.1-0.1-0.2-0.1-0.3-0.1
		c-0.2,0-0.3,0.1-0.4,0.2V17.8z M84.3,18.8v6.1c0.1,0.1,0.2,0.2,0.4,0.2c0.1,0,0.2,0,0.3-0.1c0.1-0.1,0.1-0.2,0.1-0.4v-5.2
		c0-0.3-0.2-0.5-0.6-0.5H84.3z"/>
	<path class="st1" d="M103.9,12c0.3,0,0.4,0.1,0.5,0.2s0.2,0.3,0.2,0.6v2.5c0,0.9-0.2,1.5-0.6,2c-0.4,0.4-1,0.6-1.7,0.6h-2.6
		c-0.3,0-0.5-0.1-0.6-0.2S99,17.4,99,17.1v-3.6c0-0.3-0.1-0.5-0.4-0.5c-0.2,0-0.3,0.1-0.4,0.2v5.3h4c0.2,0,0.3,0.1,0.3,0.2v0.5
		c0,0.1-0.1,0.2-0.3,0.2h-4v5.3c0.1,0.1,0.2,0.2,0.4,0.2c0.2,0,0.4-0.2,0.4-0.5v-3.6c0-0.3,0.1-0.5,0.2-0.6s0.3-0.2,0.6-0.2h2.6
		c0.8,0,1.4,0.2,1.7,0.6s0.6,1.1,0.6,2v2.5c0,0.3-0.1,0.5-0.2,0.6s-0.3,0.2-0.5,0.2H93.3c-0.3,0-0.4-0.1-0.5-0.2
		c-0.1-0.1-0.2-0.3-0.2-0.6V14.4c0-0.3,0-0.6-0.1-0.8c-0.1-0.2-0.2-0.3-0.3-0.4c-0.1-0.1-0.4-0.3-0.7-0.5c-0.1,0-0.1-0.1-0.1-0.2
		v-0.3c0-0.1,0.1-0.2,0.3-0.2H103.9z"/>
	<path class="st1" d="M118.6,22c0,1.4-0.6,2.5-1.7,3.2s-2.8,1.1-5,1.1c-2,0-3.5-0.3-4.6-0.9c-1-0.6-1.6-1.5-1.6-2.7
		c0-0.7,0.3-1.3,0.8-1.8c0.5-0.5,1.2-0.7,2-0.7c0.9,0,1.7,0.2,2.2,0.6s0.8,1,0.8,1.7c0,0.5-0.2,1-0.5,1.3c-0.4,0.3-0.9,0.5-1.5,0.5
		c-0.1,0.1-0.1,0.2-0.1,0.3c0,0.1,0,0.2,0.1,0.2s0.2,0.1,0.3,0.1c0.7,0,1.3-0.2,1.8-0.7c0.5-0.4,0.7-1,0.7-1.7c0-0.5-0.1-1-0.3-1.4
		c-0.2-0.4-0.6-0.7-1.1-1c-0.5-0.3-1.2-0.6-2-0.8c-1-0.3-1.7-0.7-2.2-1.3c-0.5-0.6-0.7-1.3-0.7-2.2c0-0.8,0.3-1.6,0.8-2.2
		c0.5-0.7,1.3-1.2,2.3-1.5c1-0.4,2.1-0.6,3.5-0.6c1.8,0,3.3,0.3,4.3,0.9s1.6,1.5,1.6,2.6c0,0.7-0.3,1.3-0.8,1.8s-1.2,0.7-2.1,0.7
		c-0.9,0-1.6-0.2-2.1-0.6s-0.8-1-0.8-1.7c0-0.5,0.2-1,0.5-1.3c0.4-0.3,0.9-0.5,1.5-0.5c0.1-0.1,0.1-0.2,0.1-0.3c0-0.1,0-0.2-0.1-0.2
		c-0.1-0.1-0.2-0.1-0.3-0.1c-0.4,0-0.9,0.1-1.2,0.3s-0.7,0.5-0.9,0.8c-0.2,0.4-0.3,0.8-0.3,1.2c0,0.8,0.3,1.4,0.8,1.9
		c0.5,0.5,1.4,0.9,2.7,1.2c1.2,0.3,2,0.8,2.6,1.3C118.3,20.4,118.6,21.1,118.6,22z"/>
</g>
<g class="st0">
	<path class="st2" d="M15.2,27H9.7l0.2-3.2L1.8,24v-4.2L8.3,11h6.9v8.6l2-0.1V24L15,23.8L15.2,27z M9.9,19.6v-2.3
		c0-0.5,0.1-0.9,0.2-1.4L10,15.8c-0.2,0.5-0.5,0.8-0.7,1.1l-1.5,1.9c-0.2,0.3-0.3,0.5-0.7,0.8l0,0.1c0.5-0.1,0.8-0.2,1.3-0.2H9.9z"
		/>
	<path class="st2" d="M31.7,25.3c-1.2,1.2-2.9,2-5.3,2s-4.1-0.8-5.3-2c-1.9-1.9-2.4-4.7-2.4-6.4c0-1.7,0.4-4.4,2.4-6.3
		c1.2-1.2,2.9-2,5.3-2s4.1,0.8,5.3,2c1.9,1.9,2.4,4.7,2.4,6.3C34,20.7,33.6,23.4,31.7,25.3z M25.4,15.8c-0.7,0.7-1,2.1-1,3.1
		c0,1.2,0.3,2.4,1,3.1c0.3,0.3,0.6,0.4,1,0.4c0.4,0,0.7-0.2,1-0.4c1-0.9,1-2.6,1-3.1c0-1.2-0.3-2.5-1-3.1c-0.3-0.2-0.6-0.4-1-0.4
		C26.1,15.4,25.7,15.5,25.4,15.8z"/>
	<path class="st2" d="M49.7,27h-5.5l0.2-3.2L36.3,24v-4.2l6.6-8.8h6.9v8.6l2-0.1V24l-2.2-0.2L49.7,27z M44.4,19.6v-2.3
		c0-0.5,0.1-0.9,0.2-1.4l-0.1-0.1c-0.2,0.5-0.5,0.8-0.7,1.1l-1.5,1.9c-0.2,0.3-0.3,0.5-0.7,0.8l0,0.1c0.5-0.1,0.8-0.2,1.3-0.2H44.4z
		"/>
</g>
</svg>
